<svg width="35" height="35" viewBox="0 0 35 35" fill="none" xmlns="http://www.w3.org/2000/svg">
<rect width="35" height="35" rx="7" fill="#7C3BFB"/>
<path fill-rule="evenodd" clip-rule="evenodd" d="M19.6392 27.9716C17.6816 31.408 11.2525 27.7628 9.39885 25.7341C4.91258 20.8234 5.77055 11.8294 12.3927 8.16271C18.2642 4.91145 25.9475 6.89156 28.6027 13.0238C30.5918 17.6184 28.6445 21.4183 24.6628 22.5484C22.6195 23.1286 19.1729 21.897 18.7631 24.2824C18.5588 25.4722 20.4305 26.5831 19.6392 27.9716ZM25.0421 13.963C26.0491 13.963 26.8664 14.7792 26.8664 15.7873C26.8664 16.7943 26.0502 17.6117 25.0421 17.6117C24.0351 17.6117 23.2178 16.7955 23.2178 15.7873C23.2178 14.7792 24.034 13.963 25.0421 13.963ZM10.5074 13.569C11.5144 13.569 12.3318 14.3852 12.3318 15.3934C12.3318 16.4015 11.5156 17.2177 10.5074 17.2177C9.49933 17.2177 8.68313 16.4015 8.68313 15.3934C8.68426 14.3852 9.50046 13.569 10.5074 13.569ZM14.8458 9.15389C15.8528 9.15389 16.6701 9.97009 16.6701 10.9782C16.6701 11.9863 15.8539 12.8025 14.8458 12.8025C13.8388 12.8025 13.0215 11.9863 13.0215 10.9782C13.0215 9.97009 13.8388 9.15389 14.8458 9.15389ZM21.599 8.97778C22.6059 8.97778 23.4233 9.79398 23.4233 10.8021C23.4233 11.8102 22.6071 12.6264 21.599 12.6264C20.592 12.6264 19.7746 11.8102 19.7746 10.8021C19.7746 9.79398 20.592 8.97778 21.599 8.97778Z" fill="white"/>
</svg>
